<?xml version="1.0" encoding="UTF-8"?>
<!-- Generator: Adobe Illustrator 22.0.1, SVG Export Plug-In . SVG Version: 6.00 Build 0)  -->
<svg xmlns="http://www.w3.org/2000/svg" xmlns:xlink="http://www.w3.org/1999/xlink" id="Layer_1" x="0px" y="0px" viewBox="0 0 300 300" xml:space="preserve">
<g>
	<path fill="#221F20" d="M17.239,140.433v1.338c0,3.853-1.177,6.261-3.799,7.492v0.107c3.157,1.231,4.388,4.014,4.388,7.974v3.051   c0,5.78-3.05,8.884-8.937,8.884h-9.259v-37.461h8.884C14.617,131.817,17.239,134.654,17.239,140.433z M5.519,137.169v9.901H7.82   c2.194,0,3.532-0.963,3.532-3.96v-2.087c0-2.676-0.91-3.853-2.997-3.853H5.519z M5.519,152.421v11.506h3.372   c1.98,0,3.05-0.91,3.05-3.693v-3.264c0-3.478-1.124-4.549-3.8-4.549H5.519z"></path>
	<path fill="#221F20" d="M21.359,131.817h5.887v32.109h9.686v5.352H21.359V131.817z"></path>
	<path fill="#221F20" d="M60.692,169.279h-5.94l-1.017-6.797H46.51l-1.017,6.797h-5.405l5.994-37.461h8.616L60.692,169.279z    M47.26,157.398h5.673l-2.783-18.945h-0.107L47.26,157.398z"></path>
	<path fill="#221F20" d="M80.492,155.311v4.977c0,5.993-2.997,9.419-8.776,9.419s-8.776-3.425-8.776-9.419v-19.48   c0-5.994,2.997-9.419,8.776-9.419s8.776,3.425,8.776,9.419v3.639h-5.565v-4.014c0-2.676-1.177-3.693-3.051-3.693   c-1.873,0-3.05,1.017-3.05,3.693v20.229c0,2.676,1.177,3.639,3.05,3.639c1.874,0,3.051-0.963,3.051-3.639v-5.352H80.492z"></path>
	<path fill="#221F20" d="M91.783,154.348l-1.819,3.425v11.506h-5.887v-37.461h5.887v16.215h0.107l7.6-16.215h5.887l-8.188,16.697   l8.188,20.764H97.51L91.783,154.348z"></path>
	<path fill="#221F20" d="M136.789,169.279h-5.941l-1.016-6.797h-7.225l-1.017,6.797h-5.405l5.993-37.461h8.616L136.789,169.279z    M123.356,157.398h5.673l-2.783-18.945h-0.107L123.356,157.398z"></path>
	<path fill="#221F20" d="M144.869,142.146h-0.107v27.133h-5.298v-37.461h7.385l5.94,22.423h0.107v-22.423h5.245v37.461h-6.048   L144.869,142.146z"></path>
	<path fill="#221F20" d="M162.367,131.817h9.312c5.887,0,8.776,3.264,8.776,9.258v18.945c0,5.994-2.89,9.258-8.776,9.258h-9.312   V131.817z M168.255,137.169v26.758h3.318c1.873,0,2.997-0.963,2.997-3.639v-19.48c0-2.676-1.124-3.639-2.997-3.639H168.255z"></path>
	<path fill="#221F20" d="M213.314,140.433v1.338c0,3.853-1.177,6.261-3.8,7.492v0.107c3.158,1.231,4.389,4.014,4.389,7.974v3.051   c0,5.78-3.05,8.884-8.937,8.884h-9.258v-37.461h8.884C210.691,131.817,213.314,134.654,213.314,140.433z M201.594,137.169v9.901   h2.301c2.194,0,3.533-0.963,3.533-3.96v-2.087c0-2.676-0.91-3.853-2.997-3.853H201.594z M201.594,152.421v11.506h3.372   c1.98,0,3.051-0.91,3.051-3.693v-3.264c0-3.478-1.124-4.549-3.8-4.549H201.594z"></path>
	<path fill="#221F20" d="M217.433,131.817h5.887v32.109h9.686v5.352h-15.574V131.817z"></path>
	<path fill="#221F20" d="M256.767,169.279h-5.941l-1.016-6.797h-7.225l-1.017,6.797h-5.405l5.993-37.461h8.616L256.767,169.279z    M243.334,157.398h5.673l-2.783-18.945h-0.107L243.334,157.398z"></path>
	<path fill="#221F20" d="M276.567,155.311v4.977c0,5.993-2.997,9.419-8.776,9.419c-5.78,0-8.777-3.425-8.777-9.419v-19.48   c0-5.994,2.997-9.419,8.777-9.419c5.78,0,8.776,3.425,8.776,9.419v3.639h-5.566v-4.014c0-2.676-1.177-3.693-3.05-3.693   c-1.873,0-3.051,1.017-3.051,3.693v20.229c0,2.676,1.178,3.639,3.051,3.639c1.873,0,3.05-0.963,3.05-3.639v-5.352H276.567z"></path>
	<path fill="#221F20" d="M287.858,154.348l-1.819,3.425v11.506h-5.887v-37.461h5.887v16.215h0.107l7.599-16.215h5.887l-8.188,16.697   l8.188,20.764h-6.048L287.858,154.348z"></path>
</g>
</svg>
