<?xml version="1.0" encoding="UTF-8"?>
<!-- Generator: Adobe Illustrator 21.1.0, SVG Export Plug-In . SVG Version: 6.00 Build 0)  -->
<svg xmlns="http://www.w3.org/2000/svg" xmlns:xlink="http://www.w3.org/1999/xlink" id="Layer_1" x="0px" y="0px" viewBox="0 0 221.3 33.4" style="enable-background:new 0 0 221.3 33.4;" xml:space="preserve">
<style type="text/css">
	.st0{fill:#FFFFFF;}
</style>
<title>KREWE-PrintLogo-HighResVector-Black</title>
<path class="st0" d="M14.4,16.3c-1.1,1-1.5,1.3-2.5,2.1s-1.3,1.2-2.5,2.1c0,1.4,0,2.9,0,4.3c0,4.4,0.1,5.1,0.9,5.9  c0.9,0.8,2.1,1.1,3.3,1h1v0.9H0v-0.9h1.2c2.9,0,4.2-1.1,4.2-3.6V4.5c0-2.5-1.3-3.6-4.2-3.6H0.1V0h14.6v0.9h-1  c-2.9,0-4.2,1.1-4.2,3.6v14.9c2-1.7,2.8-2.4,4.2-3.7c2.2-2,4.3-4.1,6.4-6.3l0.8-0.8l0.2-0.3c2.3-2.3,3.3-3.8,3.3-5  c0-1.5-1.4-2.5-3.5-2.5h-0.6V0h12.3v0.9c-1,0-2,0.3-2.9,0.7c-0.5,0.3-1,0.5-1.4,0.9c-1.6,1.2-2.1,1.7-6.7,6.5l-4.2,4.4l11,14.6  c1.5,2,2.2,2.7,3,3.1c0.8,0.4,1.7,0.5,2.6,0.5h0.6v0.9H20.1v-0.9h0.6c2.1,0,3.4-0.6,3.4-1.6c0-0.7-0.3-1.3-1.4-2.8L14.4,16.3  L14.4,16.3z"></path>
<path class="st0" d="M60.8,15.2c6.6,0,10.2-2.6,10.2-7.4c0.1-1.7-0.6-3.4-1.8-4.7C67.9,1.7,66.4,1.2,63,1h-4.6  c-2.1,0-2.8,0.8-2.8,2.8v11.3H60.8z M55.5,16c-0.1,2.3-0.1,4.5-0.1,6.8c0,6.2,0.1,7,0.9,7.8c0.9,0.8,2.1,1.1,3.3,1h1v0.9H46.1v-0.9  h1.2c2.9,0,4.2-1.1,4.2-3.6V4.5c0-2.5-1.3-3.6-4.2-3.6h-1.2V0H63c7.4,0,12.5,3.1,12.5,7.8c0,2.4-1.4,4.4-4,5.8c-2,1.1-4.2,1.8-6.4,2  l7.5,11.5c0.8,1.4,1.9,2.6,3.3,3.5c1.1,0.7,2.4,1,3.7,1v0.9h-8.7L61.1,16H55.5z"></path>
<path class="st0" d="M92.8,31.7c2.9,0,4.2-1.1,4.2-3.6V4.5c0-2.5-1.3-3.6-4.2-3.6H91V0h26.4l3.4,5.9l-0.7,0.4  c-1.2-1.5-2.8-2.7-4.7-3.5c-2.4-1.2-5.1-1.8-7.8-1.9h-3.6c-2.1,0-3.1,0.7-3.1,2.2v11.9h4.7c4.1,0,6.1-1.9,6.2-5.9h0.8v13h-0.8  c-0.1-4.4-1.9-6.2-6.1-6.2h-4.6v13c0,1.9,0.7,2.7,2.4,2.7h4c2.8,0,5.5-0.6,8-1.7c2.4-1,4.5-2.5,6.2-4.4l0.7,0.4l-3.6,6.6H91v-0.9  H92.8z"></path>
<path class="st0" d="M144.1,0.1V1c-2.4,0-3.5,0.6-3.5,1.9c0,0.5,0.1,1,0.3,1.5l8.3,23.1h0.1l6.4-20.5c-0.9-3.2-1-3.5-2-4.7  c-0.3-0.4-0.7-0.7-1.1-0.9c-0.7-0.3-1.5-0.4-2.3-0.4V0.1h12.8V1h-1.4c-1.7,0-2.8,0.9-2.8,2.2c0,0.3,0,0.6,0.1,0.9l7.2,23h0.1l6.4-19  c0.5-1.2,0.7-2.4,0.8-3.7c0-2.1-1.1-3.4-3-3.4h-0.9V0.1h9.5V1c-2.3,0.2-3.9,2-5.1,5.5l-9,26.9h-1.1l-7.8-25h-0.1l-7.9,25h-1.1  l-9.9-27.6c-1.4-3.7-2.4-4.7-4.8-4.8V0.1H144.1z"></path>
<path class="st0" d="M191.8,31.6c2.9,0,4.2-1.1,4.2-3.6V4.4c0-2.5-1.3-3.6-4.2-3.6H190V0h26.4l3.4,5.9l-0.7,0.4  c-1.2-1.5-2.8-2.7-4.7-3.5c-2.4-1.2-5.1-1.8-7.8-1.9h-3.6c-2.1,0-3.1,0.7-3.1,2.2V15h4.7c4.1,0,6.1-1.9,6.2-5.9h0.8v13h-0.8  c-0.1-4.4-1.9-6.2-6.1-6.2h-4.6v13c0,1.9,0.7,2.7,2.4,2.7h4c2.8,0,5.5-0.6,8-1.7c2.4-1,4.5-2.5,6.2-4.4l0.7,0.4l-3.6,6.6H190v-0.9  L191.8,31.6z"></path>
</svg>
