<?xml version="1.0" encoding="UTF-8"?>
<!-- Generator: Adobe Illustrator 22.0.1, SVG Export Plug-In . SVG Version: 6.00 Build 0)  -->
<svg xmlns="http://www.w3.org/2000/svg" xmlns:xlink="http://www.w3.org/1999/xlink" id="Layer_1" x="0px" y="0px" viewBox="0 0 300 300" xml:space="preserve">
<g>
	<path fill="#FFFFFF" d="M1.82,99.222v102.445h296.135V99.222H1.82z M297.365,201.077H2.41V99.812h294.954V201.077z"></path>
	<path fill="#FFFFFF" d="M56.793,160.37c4.139-0.353,7.509-2.364,8.919-9.146c0.573-2.626,0.838-4.028,0.911-8.139   c0.206-11.672,0.268-20.296,0.229-29.302c-0.005-1.078-0.411-1.414-1.187-1.414c-0.817,0-1.225,0.336-1.222,1.414   c0.031,9.029,0.256,13.123,0.091,24.804c-0.045,3.177-0.328,9.451-0.758,11.372c-1.17,5.282-3.862,7.884-6.921,8.123   c-3.26,0.255-5.618-1.293-6.725-6.39c-0.491-1.98-0.802-4.666-0.801-7.932c0.002-12.008,0.007-20.947,0.008-29.977   c0-1.078-0.408-1.414-1.224-1.414c-0.857,0-1.266,0.336-1.266,1.414c0,9.029,0,17.986,0,29.997c0,4.223,0.285,5.717,0.859,8.411   C49.181,159.123,52.532,160.733,56.793,160.37z"></path>
	<path fill="#FFFFFF" d="M69.346,159.034c0.892-0.069,1.231-0.421,1.518-1.41c1.049-3.86,1.398-7.491,2.442-11.127   c4.776-0.208,7.734-0.296,12.584-0.329c1.145,3.486,1.456,6.753,2.606,10.296c0.276,0.907,0.636,1.209,1.512,1.143   c0.836-0.063,1.109-0.389,1.092-0.959c-0.011-0.361-0.152-0.91-0.247-1.255c-3.683-14.315-6.066-26.446-9.177-41.242   c-0.381-1.57-0.828-1.826-1.767-1.826c-0.98,0-1.39,0.257-1.786,1.826c-3.297,14.209-5.958,28.569-9.614,42.694   c-0.12,0.385-0.241,0.989-0.244,1.368C68.262,158.812,68.535,159.097,69.346,159.034z M79.874,117.353   c2.197,10.451,3.439,16.961,5.239,25.999c-4.17,0.024-6.793,0.116-10.914,0.277C76.5,134.41,77.887,127.804,79.874,117.353z"></path>
	<path fill="#FFFFFF" d="M93.376,155.984c0.032,0.979,0.423,1.314,1.243,1.241c0.781-0.07,1.175-0.475,1.148-1.452   c-0.185-6.685-0.305-8.445-0.097-20.566c5.256,10.094,6.953,13.241,11.542,19.481c0.662,1.072,1.117,1.192,1.903,1.115   c0.942-0.092,1.228-0.384,1.235-0.896c0.006-0.462-0.824-1.25-1.301-1.915c-4.61-6.603-5.79-8.593-10.705-18.762   c5.165-9.558,6.756-12.367,11.544-19.471c0.38-0.592,0.723-0.937,0.731-1.462c0.008-0.527-0.013-0.928-0.87-0.928   c-0.817,0-1.146,0.514-1.77,1.416c-4.185,6.973-5.914,9.423-12.245,19.935c0.44-10.38,0.207-13.219,0.184-19.936   c-0.004-1.072-0.415-1.413-1.231-1.413c-0.857,0-1.263,0.341-1.257,1.416C93.508,128.946,92.935,141.727,93.376,155.984z"></path>
	<path fill="#FFFFFF" d="M114.04,155.112c5.061-0.443,7.862-0.546,12.998-0.908c0.734-0.052,1.732-0.694,1.088-1.492   c-0.444-0.551-0.444-0.551-1.18-0.505c-4.711,0.29-7.211,0.27-11.86,0.65c-0.027-6.311,0.005-9.176,0.325-18.054   c3.857-0.191,5.893-0.34,9.829-0.385c0.738-0.008,1.077,0.152,1.003-1.356c-0.031-0.624-0.51-0.842-1.247-0.837   c-3.929,0.029-5.655,0.033-9.504,0.162c0.242-7.324,0.256-10.894,0.487-17.221c4.523-0.02,5.776,0.084,10.317,0.08   c0.735-0.001,2.152-0.078,2.19-1.204c0.035-1.066-0.332-1.443-1.066-1.444c-4.979-0.003-7.471-0.005-12.451-0.004   c-0.938,0-1.346,0.381-1.386,1.81c-0.362,13.009-1.115,26.063-0.844,39.081C112.736,154.802,113.117,155.193,114.04,155.112z"></path>
	<path fill="#FFFFFF" d="M132.055,154.028c0.818-0.073,1.23-0.489,1.229-1.427c-0.007-4.774-0.137-7.817-0.001-13.96   c0.626,0.092,1.893,0.118,2.356,0.081c1.095-0.087,1.991-0.043,2.924-0.325c2.961,5.872,4.573,8.337,7.148,12.818   c0.513,0.983,0.904,1.381,1.966,1.125c0.507-0.122,0.678-0.298,0.696-0.844c0.013-0.397-0.143-0.722-0.702-1.714   c-2.539-4.619-4.016-6.042-6.59-12.197c3.884-2.583,6.18-8.292,6.221-13.042c0.059-6.87-4-12.26-10.204-12.26   c-1.388,0-3.066,0.121-4.045,0.412c-1.432,0.426-1.446,1.065-1.515,2.79c-0.513,12.4-0.82,24.699-0.71,37.334   C130.834,153.759,131.239,154.101,132.055,154.028z M133.851,115.002c0.994-0.275,2.552-0.317,3.493-0.325   c4.711-0.042,7.775,5.32,7.717,10.56c-0.055,4.93-3.249,11.129-9.26,11.291c-0.757,0.02-1.689-0.045-2.437-0.162   C133.636,126.688,133.557,122.801,133.851,115.002z"></path>
	<path fill="#FFFFFF" d="M158.714,151.203c0.816-0.08,0.867-0.365,0.969-1.271c0.563-11.42,1.102-19.828,1.95-33.792   c3.388,11.146,5.289,18.593,8.615,27.383c0.36,1.045,0.8,1.486,1.559,1.45c0.719-0.034,1.156-0.512,1.516-1.552   c3.327-8.761,5.324-17.651,8.862-27.443c0.458,12.031,0.474,22.4,0.994,31.912c0.07,0.774,0.456,1.112,1.255,1.04   c0.801-0.072,1.216-0.483,1.143-1.248c-0.606-10.114-0.815-21.702-1.39-33.452c-0.063-1.337-0.433-1.905-1.617-1.905   c-1.102,0-1.631,0.521-2.091,1.851c-3.288,9.645-5.579,18.196-8.626,27.172c-3.041-8.695-5.406-17.337-8.427-27.083   c-0.448-1.552-1.061-1.94-2.081-1.94c-1.184,0-1.588,0.533-1.672,2.045c-0.746,13.289-1.356,23.621-2.123,35.654   C157.442,150.941,157.855,151.287,158.714,151.203z"></path>
	<path fill="#FFFFFF" d="M188.495,148.56c0.889-0.082,1.226-0.446,1.516-1.187c1.059-2.887,1.526-5.02,2.571-7.839   c4.738,0.054,8.881,0.027,13.754-0.068c0.829,2.799,0.836,3.379,1.761,6.079c0.265,0.659,0.445,1.052,0.924,1.096   c0.853,0.077,1.136-0.39,1.126-0.834c-0.007-0.281-0.142-0.666-0.233-0.894c-2.215-7.979-5.599-20.518-8.83-31.113   c-0.341-1.108-0.797-1.477-1.735-1.477c-0.98,0-1.383,0.359-1.817,1.471c-3.995,10.425-6.132,22.777-9.859,33.107   c-0.121,0.267-0.245,0.704-0.25,0.999C187.414,148.368,187.687,148.634,188.495,148.56z M199.215,115.273   c1.835,6.178,4.104,13.992,6.39,22.176c-4.225,0.147-8.419,0.076-12.564,0.135C195.267,128.721,196.873,121.477,199.215,115.273z"></path>
	<path fill="#FFFFFF" d="M213.733,146.24c0.814-0.068,1.098-0.362,1.078-1.074c-0.101-3.625-0.101-3.625-0.15-9.644   c0.611,0.091,1.799,0.066,2.249,0.032c1.066-0.079,2.491-0.413,3.398-0.678c3.742,5.012,3.672,5.728,6.393,9.145   c0.546,0.749,0.909,1.103,1.97,1.018c0.815-0.065,0.93-0.35,0.924-0.795c-0.004-0.323,0.043-0.589-0.552-1.278   c-2.707-3.208-3.212-3.839-6.646-9.089c3.797-2.428,5.534-8.648,5.574-12.675c0.057-5.826-3.438-8.921-9.643-8.921   c-1.388,0-3.065,0.125-4.042,0.387c-1.429,0.383-1.437,0.951-1.473,2.119c-0.316,10.384-0.59,21.297-0.319,30.461   C212.517,145.963,212.921,146.308,213.733,146.24z M215.245,114.65c0.987-0.18,2.012-0.325,2.951-0.325   c4.7,0,7.463,2.31,7.419,6.769c-0.041,4.196-2.426,12-8.123,12.293c-0.738,0.038-2.057,0.045-2.789-0.081   C215.03,123.746,215.086,119.922,215.245,114.65z"></path>
	<path fill="#FFFFFF" d="M233.407,144.657c0.817-0.067,1.228-0.485,1.215-1.207c-0.178-9.731,0.278-19.227,0.396-29.908   c0.009-0.793-0.402-1.175-1.218-1.175c-0.857,0-1.263,0.382-1.273,1.175c-0.123,10.68-0.579,20.419-0.398,30.116   C232.143,144.378,232.549,144.727,233.407,144.657z"></path>
	<path fill="#FFFFFF" d="M240.322,144.073c0.779-0.068,1.184-0.492,1.17-1.221c-0.167-8.884,0.119-16.75,0.337-26.706   c5.664,9.793,8.366,16.494,14.468,24.7c0.594,0.883,1.173,1.376,2.21,1.26c0.994-0.111,1.492-0.641,1.481-1.641   c-0.116-9.971,0.159-16.537,0.218-26.931c0.004-0.782-0.403-1.166-1.179-1.165c-0.817,0-1.224,0.384-1.229,1.168   c-0.064,9.45-0.489,16.137-0.298,24.917c-6.091-7.945-8.526-15.115-14.2-24.6c-0.518-0.931-1.091-1.486-2.234-1.486   c-1.061,0-1.589,0.464-1.603,1.528c-0.139,10.606-0.558,19.506-0.381,29.171C239.094,143.793,239.503,144.144,240.322,144.073z"></path>
	<path fill="#FFFFFF" d="M265.883,141.131c5.249-0.216,7.794-0.325,12.98-0.718c0.736-0.007,1.103-0.39,1.103-1.204   c0-0.77-0.367-1.158-1.103-1.151c-4.807,0.365-7.081,0.528-11.874,0.643c-0.036-4.313-0.09-6.35,0-11.325   c3.98-0.117,5.944,0.004,9.883-0.081c0.738-0.016,1.119-0.383,1.12-1.162c0.001-0.779-0.329-1.17-1.066-1.166   c-3.929,0.02-6.011,0.027-9.886-0.022c0.067-4.326,0.039-6.015,0.06-9.991c4.544-0.013,6.816-0.019,11.355-0.018   c0.735,0,1.102-0.385,1.102-1.198c0-0.77-0.367-1.156-1.102-1.156c-4.98-0.001-7.47-0.001-12.45,0   c-0.938,0-1.346,0.426-1.351,1.423c-0.049,10.129-0.225,16.038-0.146,25.857C264.517,140.827,264.931,141.218,265.883,141.131z"></path>
	<path fill="#FFFFFF" d="M50.956,169.533c0.013-2.306,1.563-4.046,5.227-4.353c1.793-0.15,2.579,0.548,3.931,1.302   c0.461,0.264,0.865,0.742,1.198,0.711c0.553-0.052,0.997-0.318,0.975-0.833c-0.027-0.638-0.142-1.036-1.327-1.834   c-1.596-0.892-2.572-1.425-4.714-1.378c-4.61,0.101-7.541,2.904-7.543,6.582c-0.004,7.391,12.609,5.814,12.609,11.963   c0,2.73-2.781,4.522-5.983,4.522c-1.929,0-3.358-0.603-4.495-1.761c-0.569-0.711-1.056-1.385-1.421-1.385   c-0.546,0-0.854,0.348-0.854,0.857c0,0.4,0.466,1.461,1.158,1.97c1.601,1.202,3.045,2.051,5.483,2.051   c4.477,0,8.062-2.169,8.062-6.354C63.261,173.769,50.923,175.209,50.956,169.533z"></path>
	<path fill="#FFFFFF" d="M68.538,183.45c1.31,3.276,4.294,4.767,8.152,4.767c3.748,0,6.763-1.353,8.227-5.3   c0.592-1.528,0.907-3.116,0.861-5.344c0.113-6.44-0.054-9.87,0.112-15.735c0.02-0.702-0.34-0.994-1.021-0.922   c-0.717,0.075-1.071,0.442-1.095,1.143c-0.196,5.875,0.209,9.622-0.002,16.019c-0.166,1.81-0.386,2.638-0.815,3.79   c-1.168,3.167-3.454,4.327-6.226,4.357c-2.954,0.032-5.134-1.184-6.119-3.798c-0.437-1.016-0.608-2.203-0.629-3.869   c-0.078-6.123-0.032-9.561,0.305-15.414c-0.018-0.454-0.147-1.018-0.88-0.999c-0.77,0.021-1.141,0.371-1.181,1.069   c-0.333,5.849-0.541,9.23-0.464,15.34C67.789,180.703,68.029,182.177,68.538,183.45z"></path>
	<path fill="#FFFFFF" d="M92.485,187.959c0.728,0.001,1.092-0.322,1.107-1.049c0.066-3.166,0.242-5.319,0.222-8.237   c0.941,0.176,1.945,0.262,2.945,0.233c5.393-0.154,9.147-5.111,9.172-10.565c0.026-5.677-3.974-8.482-9.409-8.113   c-1.223,0.083-2.782,0.29-3.652,0.481c-1.267,0.279-1.286,1.001-1.313,1.85c-0.304,9.371,0.009,14.985-0.187,24.345   C91.357,187.632,91.721,187.958,92.485,187.959z M93.767,162.696c0.984-0.188,1.926-0.318,2.684-0.368   c4.042-0.263,7.1,1.761,7.096,6.255c-0.004,4.124-2.622,8.016-6.923,8.152c-0.86,0.027-1.832-0.037-2.85-0.249   C93.616,170.689,93.598,167.998,93.767,162.696z"></path>
	<path fill="#FFFFFF" d="M109.835,161.152c0.139,9.709-0.164,15.883-0.042,25.714c0.009,0.764,0.375,1.089,1.139,1.089   c0.727,0,1.091-0.324,1.08-1.091c-0.049-3.34-0.186-5.845-0.159-8.818c0.935,0.174,1.949,0.277,2.972,0.278   c5.516,0.009,9.406-5.319,9.415-10.763c0.01-5.666-4.022-8.872-9.51-8.812c-1.234,0.013-2.795,0.199-3.656,0.433   C109.822,159.522,109.823,160.271,109.835,161.152z M112.042,161.2c0.974-0.208,1.917-0.294,2.68-0.303   c4.071-0.047,7.251,2.338,7.219,6.826c-0.029,4.118-2.792,8.36-7.181,8.344c-0.878-0.003-1.851-0.097-2.853-0.317   C112.11,169.533,112.146,166.712,112.042,161.2z"></path>
	<path fill="#FFFFFF" d="M128.046,158.776c0.037,10.023,0.303,17.234,0.22,27.627c-0.008,1.004,0.356,1.364,1.192,1.364   c4.077,0.001,6.113-0.005,10.189-0.006c0.655,0,0.985-0.335,0.998-1.139c0.012-0.761-0.305-1.179-0.96-1.187   c-3.663-0.04-5.495-0.007-9.18-0.014c0.157-10.498-0.258-17.106-0.277-26.846c-0.001-0.765-0.36-1.061-1.076-0.992   C128.401,157.655,128.043,158.019,128.046,158.776z"></path>
	<path fill="#FFFFFF" d="M140.661,158.025c-0.332-0.706-0.7-0.957-1.546-0.912c-0.734,0.039-1.063,0.269-1.063,0.679   c0,0.409,0.255,0.873,0.623,1.603c3.219,7.189,5.489,13.002,8.567,19.602c0.013,3.059-0.066,4.85-0.093,7.93   c-0.006,0.707,0.358,1.033,1.122,1.034c0.764,0.001,1.128-0.321,1.132-1.011c0.018-3.022,0.07-4.578,0.067-7.745   c2.375-6.041,4.923-13.331,8.263-21.243c0.328-0.773,0.583-1.288,0.583-1.721c0-0.435-0.582-0.647-1.058-0.647   c-0.767,0.001-1.097,0.272-1.464,1.111c-2.952,6.972-4.559,11.422-7.446,19.197C144.615,167.193,143.45,163.987,140.661,158.025z"></path>
	<path fill="#FFFFFF" d="M224.316,149.934c-1.171,0.099-1.254,0.395-1.839,0.841c-1.871,2.061-3.163,3.165-5.492,5.622   c-0.618,0.742-1.154,1.307-1.026,2.564c0.071,0.701,0.484,0.982,0.809,0.942c0.367-0.046,0.707-0.235,0.995-0.508   c1.987-2.231,3.066-3.412,5.219-5.707c0,14.236,0.035,15.24-0.089,28.19c-0.014,1.424,0.392,2.138,1.259,2.142   c0.825,0.004,1.246-0.705,1.266-2.126c0.195-14.022,0.065-18.195,0.065-30.354C225.483,150.719,225.49,149.835,224.316,149.934z"></path>
	<path fill="#FFFFFF" d="M228.916,163.221c0,5.303,2.869,11.417,7.239,11.324c2.223-0.047,4.102-1.136,5.605-4.102   c-1.069,8.896-4.048,12.681-9.806,15.452c-0.816,0.355-1.434,0.59-1.447,1.682c-0.008,0.689,0.187,0.92,1.046,0.92   c0.819,0,3.623-0.988,6.113-3.493c4.78-4.804,6.783-12.24,6.824-20.582c0.021-4.296-0.558-9.108-2.045-12.398   c-1.338-2.96-3.304-3.455-5.815-3.169C232.015,149.379,228.916,157.767,228.916,163.221z M236.702,151.577   c1.532-0.167,3.115,0,4.395,4.041c0.885,2.796,1.069,5.602,1.043,9.112c-0.004,0.565-0.162,1.21-0.21,1.895   c-1.533,2.776-3.483,5.604-5.483,5.686c-3.372,0.138-5.177-5.233-5.178-9.179C231.266,159.082,233.721,151.902,236.702,151.577z"></path>
	<path fill="#FFFFFF" d="M260.073,148.12c0.024-1.171-0.378-1.37-1.339-1.271c-1.004,0.103-1.516,0.466-2.175,1.879   c-4.059,9.913-7.197,19.264-10.22,26.692c-0.415,0.739-0.666,0.987-0.656,1.789c0.017,1.337,0.689,1.817,1.269,1.829   c4.22,0.091,6.358,0.143,10.474,0.106c0.042,3.075,0.092,5.545,0.12,8.205c0.011,1.068,0.419,1.363,1.237,1.363   c0.777,0,1.188-0.295,1.172-1.366c-0.038-2.666-0.102-5.145-0.156-8.228c1.318-0.016,1.975-0.025,3.294-0.039   c0.724-0.008,1.112-0.705,1.05-1.643c-0.02-0.303-0.305-0.736-1.026-0.726c-1.315,0.018-2.1-0.02-3.412,0   C259.69,171.276,259.885,157.45,260.073,148.12z M257.431,176.603c-3.524,0.039-5.518,0.153-9.152,0.054   c2.317-5.371,5.393-13.992,9.531-24.748C257.56,163.113,257.398,172.217,257.431,176.603z"></path>
	<path fill="#FFFFFF" d="M272.848,145.585c-4.835,0.602-8.152,9.781-8.269,15.204c-0.114,5.274,2.708,12.185,7.148,12.293   c2.62,0.064,4.928-0.596,6.675-3.962c-2.397,12.248-4.92,14.298-10.628,17.068c-0.811,0.355-1.622,0.296-1.598,1.387   c0.015,0.689,0.252,0.921,1.11,0.921c0.819,0,3.136,0.058,5.903-2.362c5.313-4.642,8.036-14.391,8.036-25.103   c0-5.516-0.701-9.492-2.282-12.67C277.521,145.503,275.479,145.258,272.848,145.585z M278.66,164.851   c-1.625,3.806-3.783,6.09-6.12,6.115c-3.94,0.041-5.74-4.869-5.608-11.468c0.081-4.027,3.14-11.113,6.312-11.488   c1.63-0.193,3.157,0.813,4.278,3.737c1.017,2.653,1.259,4.962,1.253,9.534C278.774,162.016,278.706,163.915,278.66,164.851z"></path>
	<path fill="#FFFFFF" d="M179.141,168.752h-7.771v-5.965h6.465c0.66,0,0.798-0.383,0.798-0.704c0-0.321-0.138-0.704-0.798-0.704   h-6.465v-5.302h7.498c0.529,0,0.798-0.245,0.798-0.728c0-0.32-0.138-0.703-0.798-0.703h-8.296c-0.664,0-0.961,0.261-0.961,0.845   v13.845c0,0.584,0.296,0.845,0.961,0.845h8.569c0.53,0,0.798-0.244,0.798-0.727C179.939,169.135,179.801,168.752,179.141,168.752z"></path>
	<path fill="#FFFFFF" d="M181.388,158.361c0,2.561,2.511,3.491,4.94,4.39c2.174,0.805,4.227,1.565,4.227,3.433   c0,1.68-1.707,2.853-4.152,2.853c-1.308,0-2.406-0.319-3.559-1.033c-0.16-0.096-0.289-0.177-0.397-0.246   c-0.301-0.19-0.451-0.286-0.67-0.286c-0.457,0-0.825,0.424-0.825,0.775c0,0.277,0.277,0.589,0.845,0.954   c1.287,0.84,2.827,1.267,4.577,1.267c3.601,0,6.021-1.759,6.021-4.378c0-2.8-2.763-3.816-5.2-4.712   c-2.055-0.755-3.994-1.468-3.994-3.112c0-1.502,1.47-2.474,3.745-2.474c1.2,0,2.192,0.253,3.316,0.847   c0.087,0.047,0.172,0.096,0.255,0.144c0.268,0.156,0.499,0.29,0.7,0.29c0.442,0,0.798-0.424,0.798-0.775   c0-0.306-0.262-0.576-0.904-0.932c-1.217-0.676-2.57-1.005-4.138-1.005C183.58,154.362,181.388,155.932,181.388,158.361z"></path>
	<path fill="#FFFFFF" d="M207.193,155.35c0-0.32-0.138-0.703-0.798-0.703H193.99c-0.659,0-0.797,0.382-0.797,0.703   c0,0.483,0.268,0.728,0.797,0.728h5.296v13.52c0,0.467,0.305,0.704,0.906,0.704c0.602,0,0.907-0.237,0.907-0.704v-13.52h5.295   C206.924,156.078,207.193,155.833,207.193,155.35z"></path>
	<path fill="#FFFFFF" d="M206.529,168.207c-0.726,0-1.233,0.445-1.233,1.083c0,0.638,0.507,1.083,1.233,1.083   c0.726,0,1.233-0.445,1.233-1.083C207.762,168.653,207.255,168.207,206.529,168.207z"></path>
	<path fill="#FFFFFF" d="M29.154,188.612c0.938,0,1.838-0.108,2.705-0.286c0.484,0.523,0.95,1.031,1.341,1.472l0.006-0.001   l1.807,2.017c0.473,0.546,0.838,0.91,1.82,0.91c0.801,0,1.092-0.182,1.092-0.546c0-0.327-0.255-0.655-0.692-1.128l-2.723-2.845   c-0.157-0.172-0.326-0.356-0.501-0.546c3.993-1.787,6.425-5.86,6.425-11.311c0-0.397-0.013-53.384-0.038-53.766   c-0.449-6.73-4.802-11.096-11.243-11.096c-6.439,0-10.76,4.367-11.206,11.096c-0.025,0.382-0.038,53.37-0.038,53.766   C17.91,183.736,22.35,188.612,29.154,188.612z M20.282,122.581c0.417-5.559,3.832-9.129,8.872-9.129   c5.045,0,8.461,3.575,8.874,9.14c0.028,0.377,0.042,53.362,0.042,53.757c0,4.81-2.115,8.327-5.56,9.681   c-1.128-1.223-2.187-2.361-2.458-2.622c-0.639-0.615-1.42-0.284-1.538-0.118c-0.237,0.331-0.224,0.923-0.13,1.207   c0.048,0.144,0.852,1.017,1.852,2.089c-0.353,0.038-0.712,0.061-1.083,0.061c-5.385,0-8.915-4.076-8.915-10.299   C20.239,175.95,20.254,122.962,20.282,122.581z"></path>
</g>
</svg>
